<?xml version="1.0" encoding="utf-8"?>
<!-- Generator: Adobe Illustrator 24.3.0, SVG Export Plug-In . SVG Version: 6.00 Build 0)  -->
<svg version="1.1" id="Layer_1" xmlns="http://www.w3.org/2000/svg" xmlns:xlink="http://www.w3.org/1999/xlink" x="0px" y="0px"
	 viewBox="0 0 56 50" style="enable-background:new 0 0 56 50;" xml:space="preserve">
<path d="M16.7,44.5c-2.1-1.7-4.4-3.3-6-5.6C7.5,35,5,30.3,3.3,25.5c-1-3.2-1.4-6.6-2.7-9.6c-1.4-2.2,0.2-4.6,2.7-5.3
	c1.1-0.2,3-1.2,0.7-0.5c-2.1,1.5-2.2-1.4-0.1-1.5c1.4-0.2,2-1.4,1.5-2.4C3.6,5.1,8.9,4,6.3,2.5c-2.8-3,3.9-3.6,2.2-0.2
	C8.1,4.9,13.1,1.8,12,4.8c1.2,1.4,4.4,0.3,4.4,2.4c1.7,0.1,2.3,1.6,3.9,1.7c1.7,0.8,4.7,1.4,5.3,3.2c-1.7,1.3-5.5-2.7-5.7,0.9
	c0.5,5.4,0.4,11,2.3,16.1c0.9,3.1,3.2,5.6,5.2,8c2,2.4,4.6,4,7.3,5.4c2.4,1.1,4.9,1.9,7.5,2.3c1-0.8,2.9-3.8,4.5-2.5
	c0.1,1.4-3.2,2.9-0.2,2.8c1.8-0.5,3.1,1.4,4.6-0.4c1.4,1.6,5.7-1,4.7,2.3c-1.3,0.9-3.3,0.3-4.6,1.5c-2.2-1.1-3.9,1-6.3,0.7
	c-2.7,0.5-5.4,0.7-8.1,0.7c-4.5-0.4-9-0.5-13.3-2.1C21.2,47.2,18.9,45.9,16.7,44.5L16.7,44.5z M20.5,46.2c2.3,1,4.6,2.1,7.2,2.4
	C31.8,49.1,36,50,40,49.2c-1.8-0.8-3.8,0.3-5.6-0.6c-2.2,0.5-4.6-0.1-6.8-0.4c-2.5-1.1-5.3-1.9-7.7-3.4c-3-1.1,1.5,1.4,2.3,1.6
	c1.9,1.1-2.1-0.5-2.6-1c-1.6-0.9-1.8-0.7-0.2,0.2C19.9,45.8,20.2,46,20.5,46.2L20.5,46.2z M16.1,43c2.3,0.8,0-1.6-1-1.5
	c-0.5-0.8-1.8-1.3-0.8-1.7c-1.6,0.6-1.7-2.2-2.5-1.8c-1.7-0.5-0.7-2.5-2.8-3.7c-0.2-1.3-2.1-2.4-2.7-4.3c-0.3-1-2.1-3.8-1-1.2
	c1,2.5,2.7,4.6,4.1,6.8c1.1,2,2.4,4.2,4.4,5.4C14.5,41.8,15.1,42.8,16.1,43L16.1,43z M9.6,35.9C9.6,35.5,10,36.6,9.6,35.9z M18.8,44
	C19.3,43.8,18.1,43.7,18.8,44z M20,44.5C19.9,43.8,19.5,44.8,20,44.5z M21.6,45.1C22.3,44.4,20.4,44.7,21.6,45.1z M24.2,46.6
	C24.6,45.9,22.8,46.3,24.2,46.6z M19.1,43C20.3,42.3,17.7,43,19.1,43z M20.3,43.6C20.2,43.2,19.9,43.8,20.3,43.6z M26,47.2
	c0.9,0.6,5.4,1.3,2.6,0.2C28.2,47.6,23.4,46.1,26,47.2z M16.9,40.1C16.8,39.7,15.5,39.7,16.9,40.1z M19.6,41.7
	C20.3,41.2,18.1,41.3,19.6,41.7z M21.8,43C22.8,42.7,20.2,42.7,21.8,43z M15.8,38.9c1.1,0.8,4.4,0.1,1.7-0.5c-1.2-0.7-4-1.1-2.1,0.4
	L15.8,38.9z M23.4,43.5C23.8,42.8,21.5,43.1,23.4,43.5z M21.1,41.7c2.7,0.8-2.2-1.7-0.7-0.3l0.4,0.2L21.1,41.7z M25.7,44.4
	C28.2,44.4,23.4,44,25.7,44.4z M14.8,37.4C14.7,37,14.2,37.5,14.8,37.4z M29.9,46.8C30,45.9,29.1,47.4,29.9,46.8z M19.1,40.1
	C19,39.6,18.3,40.1,19.1,40.1z M15.1,37.2C16.5,37.1,13.1,36.5,15.1,37.2z M10.3,34C10.1,33.3,8.7,32.8,10.3,34z M22.9,42.1
	C22.6,41.8,22.8,42.1,22.9,42.1z M30.8,46.9C30.7,46.4,30.3,47.1,30.8,46.9z M22.2,41.3C22.3,40.7,21,41.2,22.2,41.3z M16.3,37.6
	C17.4,37.5,14.6,36.9,16.3,37.6z M26.2,43.8C27.9,43.1,24.6,43.5,26.2,43.8z M21.1,40.3c1.9,0.2-2.3-1.3-0.4-0.1L21.1,40.3z
	 M27.8,44.4c1.8-1.1,1.2,2.5,3.1,0.3c1.8-1.3-1.6,1.6,0.7,0.2c1.6-1.1,4,0.5,5.6,1c1.1-0.1,2.2,0.9,3.3,0.3c2.2-0.6-4.2-0.9-2.5-1.9
	c-2,0.6-3.4-0.7-4.4-1.9c-2.2-0.5-4.8-1.6-5.9-3.6c-0.5-0.7,0.7,0.1-0.4-1.1c-1.3-1.2-2-2.5-2.9-4c-1.1-0.6-1.2-2.2-1.3-0.1
	c0-1.4-1.3-2.3-1.6-1.9c0-1.3,1.4-0.7,0.4-1.7c-0.2-1.4-0.9-2.8-1.1-4.4c-0.3-0.8,0-2.4-1.1-0.7c-0.4,1.8-0.1-2.2,0.5-0.9
	c0.8-1.3-0.3-1.2-0.3-1c0.5-1.1,0.3-2.8-0.1-2.1c0.3-1.2,0.4-4.4-0.4-3.9c0.5-1.3,1-5.8-1.2-4.1c-0.9,0-2.4,0.3-3.2,0.7
	c2.3,1.3-0.2,0.5-1.2,0.3c-0.1,1.2-1,0.7-2.2,0.7c1.9,0.2-0.9,1.9-2,1.2c-1.4,0.7,1.2,2.3,0,2.8c0.1,0.8-2.1-0.3-1.9,1.5
	c-1.3-0.6-0.2,2.1,0.5,1.2c2.3,0.6,1.6,2,1.7,3.4c-0.4,0.8-1.8-1.8-0.3-1.7C8.1,21.3,8,22.5,7,23.4c-0.2,0.1,2.5,1.3,0.8,1.9
	c1.5,0.2,1.6,1.6,1.9,2.4c0.9,1,0.7-1,1.8,0.1c-0.7-1-3.7-2.9-1.3-2.3c0-1-0.4-1.9,0.3-1.8c0.7-1.3-0.8,3.2,0.9,1.6
	c0.5-0.2,0.6-1.3,1.4,0.1c1.2,1.2,0.4,2-1.2,0.9c0.3,1,2.2,1.4,1.9,3c0.4,1.4,0.9,0.9,1.4,0.8c0.4,1.4,0.6,0.4,0.6-0.3
	c1.7,0.4,1.3,1.4,1.8,2.1c1.2,0.5-1.7-3.6,0.3-1.2c2.1,1.9,0.8,2.7-1.1,2.4c1.2-0.1,1.6,1.6,3.1,1.6c1.4,0.6,2.3,3.1-0.1,2.1
	c-0.8-0.7-3.7-1.6-1.3-0.2c2.2,1,3.9,1.6,6,2.9c1.5,1.1,2.1,2.3,2.7,2.5c-1.3,0.6-3.8-0.5-1.9-0.8c-1.2-0.2-2.5-0.8-1.4,0.7
	c1,0.8,3.4,0.7,3.8,0.8c-0.4,0.8-1,0.9,0,0.9C26.2,44,27.7,44.1,27.8,44.4L27.8,44.4z M25.5,37.9c-0.7-0.7-0.9-2.1-0.1-0.9
	C25.7,37.1,26.6,39.2,25.5,37.9z M33,42.7C33.5,42.6,33.1,43,33,42.7z M24.4,36.1C24.4,35,24.6,36.9,24.4,36.1z M23.6,35.1
	C22.8,33.4,24.7,35.5,23.6,35.1z M14.5,28.8C15,28.6,14.8,29.7,14.5,28.8z M21.8,32.7C22.1,31.5,22.2,33.7,21.8,32.7z M16.7,29.2
	C16.3,28.5,17.4,29.8,16.7,29.2z M21.1,30.6c-0.8-1.8,0.6-1,0.2,0.3L21.1,30.6z M13.5,25.5c-0.4-0.6-1-2.4-0.8-2.9
	c0.2,0.9,1.9,3.8,0.8,1.2c-1.2-2.2,1.4,0.7,1.6,1.2c0.1,0.5-0.7-0.1-0.1,1.1C14,24.7,14.4,27,13.5,25.5z M11.1,23.9
	C11.2,22.5,11.7,24.9,11.1,23.9z M12.2,24.3C12.7,23.2,13,25.7,12.2,24.3z M9.7,22.3c-0.9-0.9-1.5-1.7,0-0.5c0.6,0-1.3-1.8,0.1-0.6
	C11.4,21.5,10.6,23.7,9.7,22.3L9.7,22.3z M11,22.3C11.5,21.8,11.3,22.8,11,22.3z M11.8,22.5C11,21.1,12.7,23.1,11.8,22.5z M10.2,21
	c-2.5-2.3,3.2,1.2,0.4,0.4L10.2,21z M17.4,25.2c-1.1-0.7-0.3-4.6,0.1-1.9c1.1-0.3-0.1,1.4,0.7,1.4C18.1,25.8,17.8,26.2,17.4,25.2z
	 M20.1,26.8C20.2,25.6,20.4,27.6,20.1,26.8z M19.7,26.3C19.8,25.8,19.7,26.9,19.7,26.3z M10.7,20.2c-1.6-2.2,4.7,2.3,1,0.6
	C11.3,20.7,10.9,20.7,10.7,20.2z M15.8,23C15.7,21.1,16.2,23.3,15.8,23z M19.8,25.5C20.1,24.4,19.8,26.2,19.8,25.5z M10.9,19.4
	c1-0.2,4,1.7,1.2,0.5C11.8,19.6,11.2,19.7,10.9,19.4L10.9,19.4z M19.2,23.5c0.1-1.9,0.6-1.2,0,0.3L19.2,23.5L19.2,23.5z M11.6,18.7
	c0.4-0.6-1-2.6,0.2-0.7c0.5,0.4,1.6,0.7,0.7,0.9C13.9,20.1,12.2,19.2,11.6,18.7z M18.8,22.9C19.1,20.7,19.1,24.2,18.8,22.9z
	 M10.8,16.7C11.1,16.5,11,17.1,10.8,16.7z M12.7,17.8C13.2,16.8,13.6,18.9,12.7,17.8z M18,20.7C18,20.3,18.1,21.3,18,20.7z M17.7,20
	C16.9,18.2,18.4,21,17.7,20z M17.2,18.8C17.1,18.1,17.6,19.8,17.2,18.8z M18,17.7c-0.5-0.9,0.6-3.9,0.8-2c-0.5,1.5-0.2,2.3,0.2,0.3
	C19.6,14.4,18.8,19,18,17.7L18,17.7z M18.7,13.2C18.9,12.9,18.8,13.5,18.7,13.2z M17.4,37.9C17.1,37.7,17.5,38.1,17.4,37.9z
	 M20,39.3c1.4,0.4,1.4-0.2,0.1-0.4c-0.7-0.7-2.9-1.3-0.9-0.1C19.4,39.1,19.8,39.1,20,39.3z M14.9,35.9c0.8,0.6,3,1.7,1.1,0.2
	c0.6-0.7-1.2-1.1-0.6-1.6c-1.5-0.9-1.2-0.9-0.1-0.8c-1.9-0.8,0.3-0.8,0.2-1.2c-0.7-0.1-3.5-1.3-1.9,0.1c-1.7-0.9-0.4,0.3-0.9,0.2
	c-1.7-0.5,1.5,1.3-0.3,0.9c1,0.8,2.7,2,0.4,0.8C12.5,34.9,14.5,35.5,14.9,35.9L14.9,35.9z M17.6,37.4C20.9,38.5,16,36.1,17.6,37.4z
	 M31.5,45.8C31.5,45.2,31.1,46.4,31.5,45.8z M32.9,46.4c0.8-0.7,0,1.2,1.3-0.2c0-1,0-1.5-1.4-0.4C32.4,46.1,32.2,47,32.9,46.4
	L32.9,46.4z M10.3,32.2C10.1,31.3,8.7,31.3,10.3,32.2z M11.8,33.2C11.3,32.3,9.8,32.4,11.8,33.2z M20.5,38.4c0.8,0.8,3.9,0.6,1,0.1
	C21.1,37.9,18.8,38,20.5,38.4z M32.4,45.8C33.7,44.7,31.1,46.3,32.4,45.8z M35.1,47.6C35.1,47.3,34.5,47.8,35.1,47.6z M35.1,47.2
	C36.5,45.6,33.7,47.2,35.1,47.2z M6.6,29.1c-1.2-1.8-0.8-2.5-1.9-4c-0.2-1.1-2-3.6-0.9-0.9C4.7,25.7,5,28.1,6.6,29.1L6.6,29.1z
	 M34.6,46.7C37.3,45,33.6,45.9,34.6,46.7z M36.7,47.5C38,46.3,35.8,47.2,36.7,47.5z M9.8,30.3C10.2,29.7,8.9,30.2,9.8,30.3z
	 M36.2,46.9c1.3-0.8-0.3-0.7-0.2,0.1L36.2,46.9z M18.8,35.9C18.8,35.4,18.1,36,18.8,35.9z M19.9,36.5C19.5,35.8,19.4,36.6,19.9,36.5
	z M38.3,47.5c1.6-1.2-1-0.2-0.3,0.2L38.3,47.5z M37.7,47.2C39,46,36.3,47.7,37.7,47.2z M40.9,49.3C41.8,48.7,39.8,49.1,40.9,49.3z
	 M10.7,29.9c1.2,0.3,4.8,3,2.7,0.2c-1.1-0.3-0.4-3-1.6-2.5c0.7,1.3,0.6,1.8-1,1c-2-1-1.1,0.5-0.7,0.9C9.6,29.5,10.8,29.9,10.7,29.9
	L10.7,29.9z M5.2,25.5c0.2-0.9-2-4.9-1-2C4.5,24.1,4.4,25.3,5.2,25.5z M15.3,31.7C14.6,31.2,15.2,31.7,15.3,31.7z M16.8,32.1
	C16.8,31.2,15.1,31.7,16.8,32.1z M30.1,40.5C29.8,39.8,29.1,40.4,30.1,40.5z M30.7,40.9C30.6,40.6,30.3,41,30.7,40.9z M36,44.2
	C36.5,43.9,35.3,44.2,36,44.2z M7.9,26.2C9.4,25.7,6.4,25.8,7.9,26.2z M28.9,39.4C28.9,38.5,28,39.7,28.9,39.4z M7.3,24.9
	C8.3,24.6,6.5,24.7,7.3,24.9z M10,26.2C10,25.9,9.8,26.3,10,26.2z M42.9,46.4c1.2-0.2,3.9,0.6,4.4-0.3c-1.5,0-5-1-5.2,0.2l0.3,0.1
	L42.9,46.4L42.9,46.4z M10.9,26.4C10.9,25.5,10.2,26.4,10.9,26.4z M3.8,21.5C3.5,19.7,2.6,21.2,3.8,21.5z M5.5,21.9
	C5.5,21.3,4,21.4,5.5,21.9z M6.5,22.4C6.2,22.2,6.2,22.7,6.5,22.4z M12.5,26.3C12.8,26,11.9,26.1,12.5,26.3z M5.8,21.3
	C5.7,20,3.9,21.1,5.8,21.3z M2.4,19.1C2.3,18.4,2,19.3,2.4,19.1z M2.9,18.7C2.8,17.9,2.4,18.8,2.9,18.7z M5.7,20.4
	c1.2-0.5-2.2-1-0.2-0.1L5.7,20.4z M43.9,43.9C44.6,43.2,42.9,43.7,43.9,43.9z M48.5,46.3C48.8,45.4,47.7,46.4,48.5,46.3z M6,18.9
	C6.1,18,5.1,19.1,6,18.9z M2,16.2c-0.2-1.2-0.2-3.4,1.9-2.7c-2.8,0.6,1.9,3.5,1.3,1.2c1.2,0.1,2.3-0.7,1.7,0.4
	c2.3-0.3,3.9-2.3,6.1-2c1.7-0.2,3.6-0.4,5.5-1.1c1.5-0.1,3-1.8,2.2-2.7c-2.1-0.2-4.3,0.1-6.6,0.5c-2.6,0.5-4.9,1.5-7.5,2
	c-2.5,0.3,0.5,0.9-0.2,1.1c-1.3,0.5,1.6,0.8-0.2,1.2c-1.1-0.2-2.2-0.6-1.7-1.7c-2.4,0.3-4.5,1.3-2.6,3.8L2,16.2L2,16.2z M7.8,13.2
	c0.6-2.1,3,1.7,0.9,0.3C8.5,13.3,8,13.1,7.8,13.2z M7.9,12.2C8.7,11.6,8.3,12.5,7.9,12.2z M8.9,12.2c0.1-1,2.4,0.5,0.4,0.3L8.9,12.2
	L8.9,12.2z M10.3,11.6C10.9,11,10.5,12.2,10.3,11.6z M10.7,11.4c0.9-1,4.9-0.7,1.9-0.1C11.9,10.7,11.3,11.6,10.7,11.4L10.7,11.4z
	 M16,10.6C15.8,7.7,18.6,11.6,16,10.6z M17.5,10.6c0.5-1.4,2.1-0.6,0.3-0.3C17.8,10.4,17.7,11,17.5,10.6z M5.4,18.2
	C7.1,17.2,3.7,17.3,5.4,18.2z M6.6,18.5C7.2,17.9,5.4,18.2,6.6,18.5z M3.1,16C4,15.3,2,15.7,3.1,16z M51.2,46.1
	C51.2,45.2,50.5,46.4,51.2,46.1z M46.3,42.7C46.4,41.8,45.7,42.8,46.3,42.7z M52.5,46.4c1.3,0,3.9-0.4,1.1-0.4
	C53.2,46.1,51.1,46,52.5,46.4z M7.7,17.9c1.1-0.1,1.6-1.2-0.2-1.1c-2.9-0.3,2.5,1-0.4,0.6C6.7,17.7,7.7,18,7.7,17.9z M8.6,18.4
	C8.5,17.7,8.3,18.7,8.6,18.4z M9.7,15.4C10.2,14.9,9.1,15.3,9.7,15.4z M6.2,9.6c1.9-0.6,4.5-1.4,5.3,0.3c-0.9-1.1-0.4-2.2,0.5-0.6
	c1.2,1.6,1.8-0.7,1-1.3C14,9.2,15,9.7,13.7,8.1c1.4-1.7-2.9,0.2-3.8,0.2C9.4,8.5,5,9.4,6.2,9.6L6.2,9.6z M7.3,7.5
	c1.1-0.8,3.7,0.5,2-0.8C9.2,6.5,5.6,7.6,7.3,7.5z M11.2,7.6c1.3,0-0.5-1.7,1-0.9c-0.2-0.8-1.7-1-2.5-1.3C9.3,6.2,10.5,7.6,11.2,7.6z
	 M8,4.1C8.4,3.5,7.2,4.4,8,4.1z M9.6,4.5c2-0.3-0.5-0.9-0.4,0L9.6,4.5L9.6,4.5z M6.6,2.1C5.2,0.3,9.3,2.4,7.8,0.5
	C6.6-0.5,5.5,1.6,6.6,2.1L6.6,2.1z M24.9,12c0.7-1.2-2.7-1.6-0.4-0.4C24.7,11.6,24.6,12.1,24.9,12L24.9,12z"/>
</svg>
