<?xml version="1.0" encoding="utf-8"?>
<!-- Generator: Adobe Illustrator 24.3.0, SVG Export Plug-In . SVG Version: 6.00 Build 0)  -->
<svg version="1.1" id="Layer_1" xmlns="http://www.w3.org/2000/svg" xmlns:xlink="http://www.w3.org/1999/xlink" x="0px" y="0px"
	 viewBox="0 0 157.5 50" style="enable-background:new 0 0 157.5 50;" xml:space="preserve">
<style type="text/css">
	.st0{fill:#888888;}
	.st1{fill:#9C5789;}
</style>
<g>
	<path class="st0" d="M74.3,0c0.1,0,0.1,0.1,0.2,0.1c1.8,0.5,2.9,1.9,2.9,3.7c0,3.6,0,7.1,0,10.7c0,5.6,0,11.2,0,16.8
		c-0.1,8.7-6.3,16.3-14.8,18.2c-9.3,2-18.4-2.8-21.9-11.6C36.4,27,43.2,14.5,54.8,12.4c5.3-1,10.1,0.1,14.5,3.1
		c0.2,0.1,0.3,0.3,0.6,0.3c0-0.2,0-0.4,0-0.6c0-3.5,0-7,0-10.5C69.9,1.9,70.4,1,73,0C73.4,0,73.9,0,74.3,0z M58.3,42.2
		c6.2,0,11.2-5,11.3-11.1c0-6.2-5-11.2-11.2-11.3c-6.2,0-11.2,5-11.2,11.1C47.2,37.2,52.1,42.2,58.3,42.2z"/>
	<path class="st1" d="M0,29c0.3-0.7,0.3-1.5,0.5-2.3c1.7-7.4,7.8-13.2,15.3-14.4c10.2-1.7,19.7,4.8,21.8,14.8
		c2.2,10.5-5,21-15.6,22.6C11.9,51.2,2.6,44.8,0.4,34.9c-0.1-0.6-0.1-1.3-0.4-2C0,31.6,0,30.3,0,29z M18.8,19.9
		c-6.2,0-11.2,5-11.2,11.2c0,6.2,5,11.2,11.2,11.2c6.2,0,11.2-5,11.2-11.2C30,24.8,25,19.9,18.8,19.9z"/>
	<path class="st0" d="M157.5,32.6c-0.3,1-0.3,2.1-0.6,3.1c-1.7,7.1-7.9,12.8-15.1,14c-10.2,1.7-19.5-4.5-21.8-14.5
		c-2.3-9.6,3.7-19.8,13.2-22.4c7.3-2,13.8-0.3,19.1,5.1c3.1,3.1,4.7,6.9,5.1,11.2c0,0.1,0,0.3,0.1,0.3
		C157.5,30.5,157.5,31.6,157.5,32.6z M149.6,31c0-6.2-5-11.2-11.2-11.2c-6.2,0-11.2,5-11.2,11.2c0,6.2,5,11.2,11.2,11.2
		C144.7,42.2,149.6,37.3,149.6,31z"/>
	<path class="st0" d="M98.1,50c-10,0.1-19-8-19-19c0-10.7,8.7-19,19-18.9c10.5,0,19,8.5,18.9,19C117.1,41.6,108.6,50,98.1,50z
		 M98.2,42.2c6.2,0,11.2-5,11.2-11.1c0-6.2-5-11.2-11.2-11.2C92,19.8,87,24.8,87,31C87,37.2,91.9,42.2,98.2,42.2z"/>
</g>
</svg>
